<?xml version="1.0" standalone="no"?>
<!DOCTYPE svg PUBLIC "-//W3C//DTD SVG 20010904//EN"
 "http://www.w3.org/TR/2001/REC-SVG-20010904/DTD/svg10.dtd">
<svg version="1.0" xmlns="http://www.w3.org/2000/svg"
 width="256.000000pt" height="256.000000pt" viewBox="0 0 256.000000 256.000000"
 preserveAspectRatio="xMidYMid meet">
<metadata>
Created by potrace 1.11, written by Peter Selinger 2001-2013
</metadata>
<g transform="translate(0.000000,256.000000) scale(0.100000,-0.100000)"
fill="#000000" stroke="none">
<path d="M1070 2409 c-127 -24 -177 -40 -295 -98 -330 -161 -571 -485 -623
-840 -12 -77 -7 -342 7 -406 71 -325 271 -598 556 -762 112 -64 272 -120 395
-139 73 -10 230 -12 300 -3 122 16 123 18 30 50 -407 139 -693 471 -774 897
-20 105 -22 318 -2 325 29 11 147 -2 242 -28 91 -24 224 -81 224 -96 0 -4 -27
-35 -61 -70 -68 -72 -120 -170 -139 -263 -12 -57 -14 -158 -6 -201 3 -11 5
-41 5 -67 1 -27 5 -48 9 -48 5 0 18 17 30 38 44 78 196 213 293 262 32 17 60
30 63 30 2 0 7 -19 11 -42 7 -42 58 -178 86 -230 21 -39 92 -113 151 -156 29
-21 98 -55 154 -75 107 -39 124 -43 124 -27 0 6 -4 10 -8 10 -11 0 -43 55 -65
110 -50 129 -86 340 -58 340 6 0 57 -9 115 -20 121 -24 171 -21 286 17 57 18
99 42 173 98 54 40 98 76 98 81 -1 4 -31 8 -69 9 -111 3 -369 90 -397 134 -2
5 11 19 29 32 62 45 171 183 199 252 41 102 48 168 33 321 -12 124 -15 127
-64 52 -52 -79 -184 -203 -272 -254 -102 -59 -93 -63 -130 46 -18 54 -39 111
-48 127 -23 47 -100 133 -156 174 -54 40 -252 129 -262 118 -4 -4 4 -21 18
-39 47 -64 99 -249 103 -371 1 -37 -2 -70 -6 -73 -4 -2 -20 1 -36 7 -30 12
-43 14 -168 33 -71 10 -94 9 -157 -4 -118 -26 -215 -79 -315 -173 -39 -36 -40
-31 -18 70 47 220 153 413 319 578 122 121 249 204 401 261 l50 19 -40 7 c-68
12 -235 6 -335 -13z"/>
</g>
</svg>
